# xmcd
#
# Track frame offsets:
# 150
# 1841
# 10715
# 21652
# 22707
# 32368
# 33489
# 42809
# 43538
# 51797
# 52777
# 66547
# 70102
# 79614
# 83952
# 94275
# 96454
# 107288
# 108914
# 120022
# 120770
# 132537
# 133286
# 142431
# 144627
# 147762
# 148718
# 159561
# 160554
# 172355
# 175376
# 185909
# 187996
# 191107
# 192629
# 197060
# 206517
# 207987
# 218196
# 219793
# 220606
# 227929
# 229718
# 240373
# 243105
# 258749
# 308033
# 311217
#
# Disc length: 4641 seconds
#
#
# Revision: 0
# Processed by: cddbd v1.5.1PL0 Copyright (c) Steve Scherf et al.
# Submitted via: FreeRIP 2.90 
#
DISCID=b5121f30
DTITLE=Deke Dickerson and the Ecco-Fonics - Live on the Radio - Fool's Paradise WFMU 91.1
DYEAR=2004
DGENRE=Western Swing
TTITLE0=Ecco-Fonic Intro
TTITLE1=Gotta Get You Near Me Blues
TTITLE2=Tally Ho
TTITLE3=ah yeah..
TTITLE4=Hardship
TTITLE5=thank you..
TTITLE6=What's That Cookin'?
TTITLE7=thank you.. #2
TTITLE8=Love Me
TTITLE9=all right..
TTITLE10=I Might Not Come Home At All
TTITLE11=cha cha cha..
TTITLE12=All I Can Do is Cry
TTITLE13=oh me..
TTITLE14=Right or Wrong
TTITLE15=all right.. #2
TTITLE16=Tattooed Lady
TTITLE17=very good..
TTITLE18=Flight of the Bumbel Bee Twist
TTITLE19=folks..
TTITLE20=Read Headed Woman
TTITLE21=thank you.. #3
TTITLE22=It Would be a Doggone Lie
TTITLE23=thank you.. #4
TTITLE24=Satchmo/ Stray Cat Strut
TTITLE25=thank you.. #5
TTITLE26=As Long as I Live
TTITLE27=thank you #6
TTITLE28=Wild Woman
TTITLE29=as yeah.. #2
TTITLE30=The Lovin' Machine
TTITLE31=now we want..
TTITLE32=Sugarballs' Campaign Song
TTITLE33=thank you.. #7
TTITLE34=no matter..
TTITLE35=Lookin' For Money
TTITLE36=ah yeah.. #3
TTITLE37=El "The" Cumbanchero
TTITLE38=all right.. #3
TTITLE39=Chrome Dome - false start
TTITLE40=Chrome Dome
TTITLE41=ah yeah.. #4
TTITLE42=Mexicali Rose
TTITLE43=thank you..#8
TTITLE44=Boogie Woogie Feelin'
TTITLE45=interview
TTITLE46=Road Apples Theme
TTITLE47=Road Apples
EXTD=09-09-2004
EXTT0=
EXTT1=
EXTT2=
EXTT3=
EXTT4=
EXTT5=
EXTT6=
EXTT7=
EXTT8=
EXTT9=
EXTT10=
EXTT11=
EXTT12=
EXTT13=
EXTT14=
EXTT15=
EXTT16=
EXTT17=
EXTT18=
EXTT19=
EXTT20=
EXTT21=
EXTT22=
EXTT23=
EXTT24=
EXTT25=
EXTT26=
EXTT27=
EXTT28=
EXTT29=
EXTT30=
EXTT31=
EXTT32=
EXTT33=
EXTT34=
EXTT35=
EXTT36=
EXTT37=
EXTT38=
EXTT39=
EXTT40=
EXTT41=
EXTT42=
EXTT43=
EXTT44=
EXTT45=
EXTT46=
EXTT47=
PLAYORDER=
